<svg xmlns="http://www.w3.org/2000/svg" viewBox="0 0 1200 820" role="img" aria-labelledby="title desc">
  <title id="title">Women in supportive conversation</title>
  <desc id="desc">Abstract illustration of women gathered together in a calm supportive setting.</desc>
  <defs>
    <linearGradient id="bg" x1="0" y1="0" x2="1" y2="1">
      <stop offset="0" stop-color="#fbf8f2"/>
      <stop offset="1" stop-color="#efe6d7"/>
    </linearGradient>
    <linearGradient id="olive" x1="0" y1="0" x2="1" y2="1">
      <stop offset="0" stop-color="#667254"/>
      <stop offset="1" stop-color="#31402f"/>
    </linearGradient>
    <linearGradient id="gold" x1="0" y1="0" x2="1" y2="1">
      <stop offset="0" stop-color="#d3b76f"/>
      <stop offset="1" stop-color="#b89855"/>
    </linearGradient>
    <filter id="shadow" x="-20%" y="-20%" width="140%" height="140%">
      <feDropShadow dx="0" dy="26" stdDeviation="24" flood-color="#25231e" flood-opacity="0.14"/>
    </filter>
  </defs>
  <rect width="1200" height="820" rx="58" fill="url(#bg)"/>
  <circle cx="1005" cy="135" r="160" fill="#ead9b4" opacity="0.28"/>
  <circle cx="155" cy="690" r="190" fill="#667254" opacity="0.10"/>
  <path d="M150 610 C260 520 340 520 450 610 C560 700 660 700 770 610 C880 520 950 525 1050 610" fill="none" stroke="#b89855" stroke-width="10" stroke-linecap="round" opacity="0.45"/>
  <g filter="url(#shadow)">
    <g transform="translate(170 210)">
      <circle cx="125" cy="105" r="82" fill="#5b3b2d"/>
      <circle cx="125" cy="118" r="58" fill="#8b5a44"/>
      <path d="M55 105c20-72 126-96 164-24 25 49-4 103-17 126-25-36-54-54-96-54-33 0-55 12-79 46-11-32-17-62 28-94Z" fill="#2f3728" opacity="0.92"/>
      <path d="M20 395c18-116 84-182 167-182s149 66 167 182v84H20v-84Z" fill="url(#olive)"/>
      <path d="M79 279c39 58 100 58 139 0" fill="none" stroke="#ead9b4" stroke-width="10" stroke-linecap="round"/>
    </g>
    <g transform="translate(445 150)">
      <circle cx="155" cy="124" r="86" fill="#2f261f"/>
      <circle cx="155" cy="139" r="62" fill="#9b6b50"/>
      <path d="M85 133c7-88 133-125 192-43 42 58 22 133 1 178-24-43-67-70-124-70-55 0-94 25-123 68-28-49-24-102 54-133Z" fill="#3b2a23"/>
      <path d="M38 460c21-140 99-221 214-221s193 81 214 221v93H38v-93Z" fill="#f8f3ea"/>
      <path d="M85 438c70-74 214-74 284 0" fill="none" stroke="url(#gold)" stroke-width="18" stroke-linecap="round"/>
      <path d="M96 305c41 72 118 72 159 0" fill="none" stroke="#667254" stroke-width="12" stroke-linecap="round"/>
    </g>
    <g transform="translate(790 230)">
      <circle cx="117" cy="100" r="76" fill="#3b2a23"/>
      <circle cx="117" cy="112" r="54" fill="#7b4936"/>
      <path d="M52 102c18-65 112-90 158-27 28 38 18 87-1 130-22-35-52-53-92-53-38 0-67 17-89 50-18-36-16-77 24-100Z" fill="#1f2b20"/>
      <path d="M8 386c16-111 80-174 183-174s167 63 183 174v86H8v-86Z" fill="#ead9b4"/>
      <path d="M63 281c36 55 94 55 130 0" fill="none" stroke="#2f3728" stroke-width="10" stroke-linecap="round"/>
    </g>
  </g>
  <g fill="none" stroke="#667254" stroke-linecap="round" opacity="0.28">
    <path d="M270 145c48-42 96-42 144 0" stroke-width="8"/>
    <path d="M792 138c42-36 84-36 126 0" stroke-width="8"/>
    <path d="M470 680c90 42 180 42 270 0" stroke-width="9"/>
  </g>
</svg>
